<svg width="254" height="28" viewBox="0 0 254 28" fill="none" xmlns="http://www.w3.org/2000/svg">
<g id="&#235;&#161;&#156;&#234;&#179;&#160;" clip-path="url(#clip0_434_23083)">
<g id="Group">
<path id="Vector" d="M24.5443 0.15332H4.46332C1.99944 0.15332 0 2.15276 0 4.61664V20.2343C0 22.3204 1.43267 24.06 3.36127 24.5559C3.36127 24.4615 3.34552 24.367 3.34552 24.2726C3.34552 18.1089 8.34413 13.1182 14.4999 13.1182C20.6635 13.1182 25.6543 18.1168 25.6543 24.2726C25.6543 24.367 25.6385 24.4615 25.6385 24.5559C27.5671 24.0679 28.9998 22.3204 28.9998 20.2343V4.61664C28.9998 2.15276 27.0003 0.15332 24.5365 0.15332H24.5443Z" fill="#3C6DB5"/>
<path id="Vector_2" d="M19.4509 17.1171C18.0261 16.2591 16.3967 15.7632 14.657 15.7632C12.9173 15.7632 11.2879 16.2512 9.86306 17.1171C8.10764 18.1798 6.6671 19.8172 5.74609 21.793C6.96623 24.4301 9.09949 26.461 11.6893 27.3505C12.6261 27.6732 13.6179 27.8464 14.6491 27.8464C15.6803 27.8464 16.6722 27.6732 17.6089 27.3505C20.1988 26.461 22.332 24.4301 23.5522 21.793C22.6311 19.8172 21.1906 18.1798 19.4352 17.1171H19.4509ZM14.657 25.7132C12.5001 25.7132 10.7526 23.9656 10.7526 21.8087C10.7526 19.6519 12.5001 17.9043 14.657 17.9043C16.8139 17.9043 18.5614 19.6519 18.5614 21.8087C18.5614 23.9656 16.8139 25.7132 14.657 25.7132Z" fill="#25366D"/>
<path id="Vector_3" d="M14.6579 20.022C13.674 20.022 12.8789 20.817 12.8789 21.801C12.8789 22.785 13.674 23.58 14.6579 23.58C15.6419 23.58 16.437 22.785 16.437 21.801C16.437 20.817 15.6419 20.022 14.6579 20.022Z" fill="#3C6DB5"/>
<g id="Group_2">
<path id="Vector_4" d="M3.33789 4.78218C3.33789 4.47518 3.57405 4.27051 3.89679 4.27051C4.21953 4.27051 4.45569 4.47518 4.45569 4.78218C4.45569 5.08918 4.21953 5.29384 3.89679 5.29384C3.57405 5.29384 3.33789 5.08131 3.33789 4.78218ZM3.44022 5.97082H4.34548V9.83589H3.44022V5.97082Z" fill="white"/>
<path id="Vector_5" d="M5.50195 5.97093H6.2419L6.31275 6.49047H6.33637C6.68273 6.15198 7.07632 5.87646 7.60373 5.87646C8.43027 5.87646 8.79238 6.43536 8.79238 7.41147V9.83599H7.88712V7.52955C7.88712 6.89193 7.70606 6.65577 7.28886 6.65577C6.95037 6.65577 6.72209 6.82108 6.40721 7.13596V9.83599H5.50195V5.97093Z" fill="white"/>
<path id="Vector_6" d="M9.53326 9.39517L9.95834 8.82052C10.3047 9.08817 10.6353 9.25348 11.021 9.25348C11.4461 9.25348 11.6429 9.05668 11.6429 8.78904C11.6429 8.46629 11.2257 8.31673 10.8085 8.15929C10.3047 7.97037 9.72219 7.67911 9.72219 7.03362C9.72219 6.38813 10.2653 5.87646 11.1312 5.87646C11.6665 5.87646 12.0995 6.09688 12.4143 6.3409L11.9971 6.8998C11.7295 6.70301 11.454 6.56131 11.147 6.56131C10.7613 6.56131 10.5723 6.75024 10.5723 6.98639C10.5723 7.29339 10.9659 7.41147 11.3831 7.56103C11.9027 7.75783 12.4931 8.00973 12.4931 8.72606C12.4931 9.3873 11.9657 9.92258 10.9895 9.92258C10.4621 9.92258 9.90324 9.6943 9.52539 9.3873L9.53326 9.39517Z" fill="white"/>
<path id="Vector_7" d="M13.2012 4.78218C13.2012 4.47518 13.4373 4.27051 13.7601 4.27051C14.0828 4.27051 14.319 4.47518 14.319 4.78218C14.319 5.08918 14.0828 5.29384 13.7601 5.29384C13.4373 5.29384 13.2012 5.08131 13.2012 4.78218ZM13.3035 5.97082H14.2088V9.83589H13.3035V5.97082Z" fill="white"/>
<path id="Vector_8" d="M15.1055 10.5366C15.1055 10.2139 15.3101 9.92263 15.6644 9.7101V9.67861C15.4676 9.55266 15.318 9.34799 15.318 9.03312C15.318 8.71825 15.5227 8.46635 15.7431 8.30891V8.27743C15.4754 8.08063 15.2314 7.71066 15.2314 7.25409C15.2314 6.36458 15.9478 5.86865 16.7586 5.86865C16.9711 5.86865 17.1758 5.90801 17.3332 5.96311H18.7108V6.64009H18.0023C18.1282 6.78178 18.2227 7.02581 18.2227 7.28558C18.2227 8.14361 17.5693 8.60017 16.7507 8.60017C16.5854 8.60017 16.4043 8.56868 16.2311 8.49784C16.1131 8.60017 16.0422 8.69463 16.0422 8.86781C16.0422 9.08822 16.1997 9.21417 16.672 9.21417H17.3568C18.2778 9.21417 18.7737 9.49756 18.7737 10.1667C18.7737 10.9302 17.9708 11.5285 16.7113 11.5285C15.7903 11.5285 15.1055 11.1979 15.1055 10.5209V10.5366ZM17.9 10.332C17.9 10.0328 17.6638 9.94625 17.2151 9.94625H16.6877C16.483 9.94625 16.3099 9.93051 16.1682 9.89115C15.9635 10.0486 15.869 10.2218 15.869 10.4028C15.869 10.757 16.2469 10.9617 16.853 10.9617C17.4591 10.9617 17.9 10.6705 17.9 10.332ZM17.4277 7.26983C17.4277 6.78178 17.1364 6.50627 16.7586 6.50627C16.3807 6.50627 16.0894 6.78178 16.0894 7.26983C16.0894 7.75789 16.3886 8.04914 16.7586 8.04914C17.1285 8.04914 17.4277 7.76576 17.4277 7.26983Z" fill="white"/>
<path id="Vector_9" d="M19.459 4.27832H20.3642V5.71886L20.3249 6.46669C20.6476 6.15969 21.0333 5.88417 21.5608 5.88417C22.3873 5.88417 22.7494 6.44307 22.7494 7.41918V9.8437H21.8441V7.53726C21.8441 6.89964 21.6631 6.66348 21.2459 6.66348C20.9074 6.66348 20.6791 6.82879 20.3642 7.14366V9.8437H19.459V4.28619V4.27832Z" fill="white"/>
<path id="Vector_10" d="M23.9944 8.52918V6.68717H23.4434V6.0102L24.0416 5.97084L24.1518 4.91602H24.9075V5.97084H25.8915V6.69505H24.9075V8.53705C24.9075 8.99362 25.0807 9.21403 25.4585 9.21403C25.5924 9.21403 25.7498 9.1668 25.86 9.12744L26.0174 9.79654C25.8049 9.86739 25.5373 9.93823 25.2303 9.93823C24.3407 9.93823 24.0101 9.37146 24.0101 8.53705L23.9944 8.52918Z" fill="white"/>
</g>
</g>
<g id="Group_3">
<g id="Group_4">
<path id="Vector_11" d="M46.6638 11.5048C46.6638 12.0637 46.5457 12.4651 46.3253 12.7013C46.1206 12.8981 45.7979 13.0004 45.357 13.0004H38.3905C37.9496 13.0004 37.6348 12.8981 37.438 12.7013C37.2254 12.473 37.1152 12.0715 37.1152 11.5048V5.11285H39.7917V6.65573H44.0031V5.11285H46.6638V11.5048ZM38.0047 14.6614H52.1504V20.5967C52.1504 21.1556 52.0402 21.5571 51.8119 21.7932C51.6073 21.99 51.2924 22.0924 50.8594 22.0924H39.2957C38.8549 22.0924 38.5322 21.99 38.3275 21.7932C38.115 21.5571 38.0047 21.1556 38.0047 20.5967V14.6614ZM39.7917 10.5838H44.0031V8.98579H39.7917V10.5838ZM49.4976 17.141H40.6497V19.6206H49.4976V17.141ZM49.4819 7.80501V5.10498H52.1583V13.5357H49.4819V10.3004H45.5302V7.80501H49.4819Z" fill="#25366D"/>
<path id="Vector_12" d="M64.9186 5.11279V7.55305H61.5022C61.6439 8.30088 61.9588 8.92275 62.4547 9.43442C63.053 10.0484 63.8953 10.4499 64.9973 10.6545V13.2522C63.9976 13.1971 63.053 12.9059 62.1713 12.3706C61.274 11.8353 60.5891 11.1583 60.1247 10.3318C59.6445 11.1583 58.9124 11.8432 57.9442 12.3942C57.031 12.9138 56.1337 13.1971 55.2441 13.2522V10.6545C56.3462 10.4656 57.1806 10.072 57.7474 9.45803C58.2118 8.95424 58.5031 8.31662 58.6212 7.56093H55.315V5.12066H64.9265L64.9186 5.11279ZM68.0358 13.8899C69.1851 14.9132 69.7598 16.212 69.7598 17.7707C69.7598 19.3293 69.1851 20.6281 68.0358 21.6672C66.9731 22.6433 65.7215 23.1235 64.2967 23.1235C62.8719 23.1235 61.6046 22.6354 60.5576 21.6672C59.4319 20.6281 58.8652 19.3293 58.8652 17.7707C58.8652 16.212 59.4319 14.9211 60.5576 13.8899C61.6046 12.9138 62.8562 12.4336 64.2967 12.4336C65.7373 12.4336 66.9574 12.9216 68.0358 13.8899ZM62.4547 15.8106C61.8958 16.3459 61.6203 16.9992 61.6203 17.7707C61.6203 18.5421 61.8958 19.1955 62.4547 19.7307C62.99 20.2503 63.604 20.5101 64.3125 20.5101C65.0209 20.5101 65.6586 20.2503 66.1938 19.7307C66.7527 19.1955 67.0283 18.5421 67.0283 17.7707C67.0283 16.9992 66.7527 16.3459 66.1938 15.8106C65.6586 15.3068 65.0367 15.0549 64.3125 15.0549C63.5883 15.0549 62.9821 15.3068 62.4547 15.8106ZM67.7525 7.91516V5.12066H70.4289V13.2522H67.7525V10.2137H65.3988V7.91516H67.7525Z" fill="#25366D"/>
<path id="Vector_13" d="M79.8358 22.2577V16.8419H73.1133V14.3465H89.2505V16.8419H82.5122V22.2577H79.8358ZM88.6995 11.2844C88.6995 11.8433 88.5893 12.2447 88.361 12.4809C88.1563 12.6777 87.8415 12.78 87.4085 12.78H74.9317C74.4987 12.78 74.1839 12.6777 73.9792 12.4809C73.7666 12.2447 73.6564 11.8433 73.6564 11.2844V5.10498H76.3171V6.6636H86.0388V5.10498H88.6995V11.2844ZM76.3171 10.3082H86.0388V8.89132H76.3171V10.3082Z" fill="#25366D"/>
</g>
<g id="Group_5">
<path id="Vector_14" d="M100.397 16.2199H106.395V18.2823H99.4205C98.9404 18.2823 98.594 18.1721 98.3815 17.9596C98.1532 17.7234 98.043 17.3141 98.043 16.7394V5.19147H105.718V7.25388H100.405V16.2278L100.397 16.2199ZM104.954 10.5207H107.773V5.18359H110.008V22.0923H107.773V12.6618H104.954V10.5207ZM111.488 5.18359H113.747V22.0923H111.488V5.19147V5.18359Z" fill="#3C6DB5"/>
<path id="Vector_15" d="M126.428 6.98624C127.349 8.06468 127.806 9.40289 127.806 11.0009C127.806 12.5988 127.349 13.8741 126.428 14.9368C125.405 16.1333 124.019 16.7394 122.272 16.7394C120.524 16.7394 119.131 16.1412 118.131 14.9368C117.226 13.8741 116.77 12.5595 116.77 11.0009C116.77 9.44225 117.226 8.06468 118.131 6.98624C119.131 5.78972 120.509 5.18359 122.272 5.18359C124.035 5.18359 125.405 5.78185 126.428 6.98624ZM119.95 8.42678C119.43 9.15886 119.17 10.0169 119.17 11.0087C119.17 12.0006 119.43 12.8193 119.95 13.5277C120.524 14.3149 121.296 14.7085 122.272 14.7085C123.248 14.7085 124.043 14.3149 124.633 13.5277C125.169 12.835 125.436 11.9927 125.436 11.0087C125.436 10.0248 125.169 9.15099 124.633 8.42678C124.035 7.62386 123.248 7.23027 122.272 7.23027C121.296 7.23027 120.54 7.63173 119.95 8.42678ZM130.64 5.19147H132.978V22.2576H130.64V5.19147Z" fill="#3C6DB5"/>
<path id="Vector_16" d="M138.85 12.5437V16.2198H147.446V18.2822H137.873C137.409 18.2822 137.071 18.172 136.858 17.9595C136.63 17.7233 136.52 17.314 136.52 16.7394V5.19141H146.155V7.25382H138.857V10.5285H144.777V12.5437H138.857H138.85ZM149.886 10.4655V5.19141H152.224V22.1001H149.886V12.5279H146.407V10.4655H149.886Z" fill="#3C6DB5"/>
<path id="Vector_17" d="M168.252 14.984H160.734V12.9452H177.643V14.984H170.551V18.2193H168.252V14.984ZM162.718 11.5676C162.254 11.5676 161.915 11.4574 161.703 11.2291C161.466 10.9929 161.341 10.5836 161.341 10.009V5.19141H163.678V6.4509H174.715V5.19141H177.053V10.009C177.053 10.5679 176.927 10.9772 176.675 11.2291C176.462 11.4574 176.124 11.5676 175.659 11.5676H162.726H162.718ZM163.678 19.9432H177.053V22.0056H162.742C162.262 22.0056 161.915 21.8954 161.703 21.6671C161.466 21.431 161.341 21.0374 161.341 20.4864V16.4875H163.678V19.9432ZM163.678 9.52878H174.715V8.33226H163.678V9.52878Z" fill="#3C6DB5"/>
<path id="Vector_18" d="M186.695 5.19141C186.695 6.90746 186.978 8.22993 187.553 9.15093C188.206 10.2058 189.308 10.8512 190.851 11.0874V13.2443C189.741 13.1656 188.749 12.8743 187.876 12.3626C186.892 11.8037 186.097 11.0087 185.498 9.98535C184.9 10.9851 184.042 11.788 182.916 12.3863C181.987 12.8822 181.019 13.1656 180.02 13.2443V11.1031C181.578 10.8512 182.688 10.19 183.334 9.12732C183.908 8.22206 184.192 6.90746 184.192 5.19141H186.687H186.695ZM196.291 22.1001H193.953V17.1251H181.342V15.0627H196.291V22.1001ZM193.953 7.11213V5.19141H196.291V13.5434H193.953V9.14306H190.694V7.10426H193.953V7.11213Z" fill="#3C6DB5"/>
<path id="Vector_19" d="M206.193 5.19141C206.193 8.94627 206.563 11.7014 207.311 13.4489C207.98 15.0076 209.019 15.905 210.452 16.149V18.5499C209.224 18.4003 208.161 17.9595 207.256 17.2117C206.272 16.4009 205.501 15.2595 204.958 13.7953C204.399 15.2201 203.58 16.3615 202.502 17.2117C201.565 17.9438 200.549 18.3925 199.447 18.5499V16.1726C200.872 15.905 201.935 14.9997 202.627 13.4568C203.399 11.7093 203.785 8.96201 203.785 5.19928H206.201L206.193 5.19141ZM213.191 5.19141H215.529V22.2575H213.191V5.19141Z" fill="#3C6DB5"/>
<path id="Vector_20" d="M235.368 19.101V21.1792H218.459V19.101H235.368ZM228.212 5.11279C228.212 7.08862 228.81 8.62362 230.015 9.73355C231.093 10.7175 232.597 11.3158 234.533 11.5126V13.7875C232.959 13.6537 231.526 13.2444 230.235 12.5674C228.732 11.796 227.622 10.7569 226.921 9.45016C226.205 10.7726 225.079 11.8117 223.56 12.591C222.269 13.2444 220.836 13.6458 219.262 13.7875V11.5283C221.191 11.3158 222.71 10.7097 223.796 9.70993C225.008 8.60788 225.614 7.07287 225.614 5.11279H228.212Z" fill="#3C6DB5"/>
<path id="Vector_21" d="M240.633 10.3632V11.5598H246.332V13.5749H239.696C239.232 13.5749 238.885 13.4647 238.657 13.2365C238.421 12.9846 238.295 12.5752 238.295 12.0163V5.19147H246.151V7.20665H240.633V8.40317H244.852V10.3632H240.633ZM239.051 15.0785H253.999V20.4943C253.999 21.0374 253.873 21.431 253.621 21.675C253.409 21.9033 253.07 22.0135 252.606 22.0135H240.452C239.987 22.0135 239.641 21.9033 239.413 21.675C239.177 21.4389 239.051 21.0453 239.051 20.4943V15.0785ZM251.661 17.0937H241.389V19.9747H251.661V17.0937ZM248.024 8.34019V5.18359H250.26V13.7954H248.024V10.3947H245.844V8.33232H248.024V8.34019ZM251.74 5.18359H253.999V13.7954H251.74V5.19147V5.18359Z" fill="#3C6DB5"/>
</g>
</g>
</g>
<defs>
<clipPath id="clip0_434_23083">
<rect width="254" height="27.6931" fill="white" transform="translate(0 0.15332)"/>
</clipPath>
</defs>
</svg>
